<svg width="256" height="256" viewBox="0 0 256 256" fill="none" xmlns="http://www.w3.org/2000/svg">
<g clip-path="url(#clip0_1_85)">
<path d="M118.15 5.52053C122.654 -1.84018 133.346 -1.84017 137.85 5.52054L148.096 22.265C151.306 27.5097 158.062 29.3199 163.463 26.3826L180.709 17.0046C188.29 12.8821 197.55 18.2281 197.77 26.8548L198.272 46.4791C198.429 52.6257 203.374 57.5714 209.521 57.7285L229.145 58.2297C237.772 58.4501 243.118 67.7097 238.995 75.2908L229.617 92.5366C226.68 97.9382 228.49 104.694 233.735 107.904L250.479 118.15C257.84 122.654 257.84 133.346 250.479 137.85L233.735 148.096C228.49 151.306 226.68 158.062 229.617 163.463L238.995 180.709C243.118 188.29 237.772 197.55 229.145 197.77L209.521 198.272C203.374 198.429 198.429 203.374 198.272 209.521L197.77 229.145C197.55 237.772 188.29 243.118 180.709 238.995L163.463 229.617C158.062 226.68 151.306 228.49 148.096 233.735L137.85 250.479C133.346 257.84 122.654 257.84 118.15 250.479L107.904 233.735C104.694 228.49 97.9382 226.68 92.5366 229.617L75.2908 238.995C67.7097 243.118 58.4501 237.772 58.2297 229.145L57.7285 209.521C57.5714 203.374 52.6257 198.429 46.479 198.272L26.8548 197.77C18.2281 197.55 12.8821 188.29 17.0046 180.709L26.3826 163.463C29.3199 158.062 27.5097 151.306 22.265 148.096L5.52053 137.85C-1.84018 133.346 -1.84017 122.654 5.52054 118.15L22.265 107.904C27.5097 104.694 29.3199 97.9382 26.3826 92.5366L17.0046 75.2908C12.8821 67.7097 18.2281 58.4501 26.8548 58.2297L46.4791 57.7285C52.6257 57.5714 57.5714 52.6257 57.7285 46.4791L58.2297 26.8548C58.4501 18.2281 67.7097 12.8821 75.2908 17.0046L92.5366 26.3826C97.9382 29.3199 104.694 27.5097 107.904 22.265L118.15 5.52053Z" fill="url(#paint0_linear_1_85)"/>
<g opacity="0.1" filter="url(#filter0_f_1_85)">
<path d="M151.725 35.5884C151.506 31.3359 147.994 28.0003 143.736 28.0003H112.265C108.007 28.0003 104.495 31.3359 104.276 35.5884L99.5583 127.079C99.339 131.331 95.827 134.667 91.5689 134.667H77.9807C70.8535 134.667 67.2841 143.284 72.3238 148.324L122.343 198.343C125.468 201.468 130.533 201.468 133.657 198.343L183.677 148.324C188.717 143.284 185.147 134.667 178.02 134.667H164.432C160.174 134.667 156.662 131.331 156.442 127.079L151.725 35.5884Z" fill="#732300"/>
</g>
<g opacity="0.4" filter="url(#filter1_f_1_85)">
<path d="M147.524 35.2361C147.131 31.1327 143.683 28.0003 139.561 28.0003H116.439C112.317 28.0003 108.869 31.1328 108.476 35.2362L98.8613 135.431C98.4676 139.535 95.0202 142.667 90.8979 142.667H81.2001C74.1869 142.667 70.5681 151.049 75.3776 156.153L122.178 205.821C125.336 209.173 130.665 209.173 133.823 205.821L180.623 156.153C185.432 151.049 181.813 142.667 174.8 142.667H165.103C160.98 142.667 157.533 139.535 157.139 135.431L147.524 35.2361Z" fill="#732300"/>
</g>
<path d="M155 8.00034C155 3.58206 151.418 0.000335693 147 0.000335693H109C104.582 0.000335693 101 3.58205 101 8.00033V120C101 124.418 97.4183 128 93 128H69.446C62.0404 128 58.6103 137.195 64.2066 142.046L122.761 192.792C125.767 195.398 130.233 195.398 133.239 192.792L191.794 142.046C197.39 137.195 193.96 128 186.554 128H163C158.582 128 155 124.418 155 120V8.00034Z" fill="url(#paint1_linear_1_85)"/>
</g>
<defs>
<filter id="filter0_f_1_85" x="67.298" y="25.3337" width="121.405" height="178.02" filterUnits="userSpaceOnUse" color-interpolation-filters="sRGB">
<feFlood flood-opacity="0" result="BackgroundImageFix"/>
<feBlend mode="normal" in="SourceGraphic" in2="BackgroundImageFix" result="shape"/>
<feGaussianBlur stdDeviation="1.33333" result="effect1_foregroundBlur_1_85"/>
</filter>
<filter id="filter1_f_1_85" x="57.1842" y="12.0003" width="141.632" height="212.335" filterUnits="userSpaceOnUse" color-interpolation-filters="sRGB">
<feFlood flood-opacity="0" result="BackgroundImageFix"/>
<feBlend mode="normal" in="SourceGraphic" in2="BackgroundImageFix" result="shape"/>
<feGaussianBlur stdDeviation="8" result="effect1_foregroundBlur_1_85"/>
</filter>
<linearGradient id="paint0_linear_1_85" x1="-10.5768" y1="-10.5768" x2="128" y2="266.577" gradientUnits="userSpaceOnUse">
<stop stop-color="#FFD433"/>
<stop offset="1" stop-color="#FF7C27"/>
</linearGradient>
<linearGradient id="paint1_linear_1_85" x1="128" y1="5.33334" x2="128" y2="197.333" gradientUnits="userSpaceOnUse">
<stop stop-color="#DDE7EF"/>
<stop offset="0.795" stop-color="#F9FCFF"/>
</linearGradient>
<clipPath id="clip0_1_85">
<rect width="256" height="256" fill="white"/>
</clipPath>
</defs>
</svg>
